<?xml version="1.0" encoding="utf-8"?>
<!-- Generator: Adobe Illustrator 18.1.1, SVG Export Plug-In . SVG Version: 6.00 Build 0)  -->
<svg version="1.1" xmlns="http://www.w3.org/2000/svg" xmlns:xlink="http://www.w3.org/1999/xlink" x="0px" y="0px"
	 viewBox="0 0 44 44" enable-background="new 0 0 44 44" xml:space="preserve">
<g id="Arrows_1_">
	<g id="Up_Arrow_3">
		<g>
			<path fill="#FFFFFF" d="M22,0C9.8,0,0,9.8,0,22s9.8,22,22,22s22-9.8,22-22S34.2,0,22,0z M22,42C11,42,2,33,2,22S11,2,22,2
				c11,0,20,9,20,20S33,42,22,42z M22.7,14.3C22.5,14.1,22.3,14,22,14c-0.3,0-0.5,0.1-0.7,0.3l-11,10C10.1,24.5,10,24.7,10,25
				c0,0.6,0.4,1,1,1c0.3,0,0.5-0.1,0.7-0.3L22,16.3l10.3,9.4c0.2,0.2,0.4,0.3,0.7,0.3c0.6,0,1-0.4,1-1c0-0.3-0.1-0.5-0.3-0.7
				L22.7,14.3z"/>
		</g>
	</g>
</g>
</svg>
