<?xml version="1.0" encoding="utf-8"?>
<!-- Generator: Adobe Illustrator 18.1.1, SVG Export Plug-In . SVG Version: 6.00 Build 0)  -->
<svg version="1.1" xmlns="http://www.w3.org/2000/svg" xmlns:xlink="http://www.w3.org/1999/xlink" x="0px" y="0px"
	 viewBox="0 0 118.6 118.6" enable-background="new 0 0 118.6 118.6" xml:space="preserve">
<g id="Background">
</g>
<g id="Layer_1">
	<path fill="#FFFFFF" d="M59.3,118.6c32.7,0,59.3-26.5,59.3-59.3C118.6,26.5,92,0,59.3,0S0,26.5,0,59.3C0,92,26.5,118.6,59.3,118.6"
		/>
	<circle fill="none" cx="59.3" cy="59.3" r="59.3"/>
	<path fill="#2CA9E1" d="M56.5,42.5h4.8c1.1-1,1.5-2.7,1.5-5.2c0-4.2-3.6-7.9-3.9-11.9v-0.5c0,0.1,0,0.2,0,0.2c0-0.1,0-0.2,0-0.2
		v0.5c-0.3,4-3.9,7.8-3.9,11.9C55,39.8,55.5,41.6,56.5,42.5"/>
	<path fill="#A6A8AB" d="M56.3,55.3c-0.2,14.2-0.1,37.3,2.6,38.9c2.7-1.6,2.9-24.7,2.7-38.9H56.3z"/>
	<path fill="#A6A8AB" d="M60.2,52.4c0,0.2-0.2,0.3-0.4,0.3c-0.2,0-0.4-0.2-0.4-0.3v-7.1c0-0.2,0.2-0.3,0.4-0.3
		c0.2,0,0.4,0.2,0.4,0.3V52.4z M61.3,43.3h-4.8c0,0-0.2,4.7-0.2,11.1h5.3C61.5,48,61.3,43.3,61.3,43.3"/>
</g>
</svg>
