<?xml version="1.0" encoding="utf-8"?>
<!-- Generator: Adobe Illustrator 16.0.0, SVG Export Plug-In . SVG Version: 6.00 Build 0)  -->
<!DOCTYPE svg PUBLIC "-//W3C//DTD SVG 1.1//EN" "http://www.w3.org/Graphics/SVG/1.1/DTD/svg11.dtd">
<svg version="1.1" id="Layer_1" xmlns="http://www.w3.org/2000/svg" xmlns:xlink="http://www.w3.org/1999/xlink" x="0px" y="0px"
	 width="595.279px" height="592.279px" viewBox="815.099 124.806 595.279 592.279"
	 enable-background="new 815.099 124.806 595.279 592.279" xml:space="preserve">
<g>
	<path fill="none" stroke="#FFFFFF" stroke-width="0.5" d="M1113.923,717.084c163.557,0,296.145-132.58,296.145-296.141
		c0-163.555-132.588-296.138-296.145-296.138c-163.556,0-296.144,132.583-296.144,296.138
		C817.78,584.504,950.367,717.084,1113.923,717.084z"/>
	<path fill="#FFFFFF" d="M1113.923,717.084c163.557,0,296.145-132.58,296.145-296.141c0-163.555-132.588-296.138-296.145-296.138
		c-163.556,0-296.144,132.583-296.144,296.138C817.78,584.504,950.367,717.084,1113.923,717.084"/>
	<g>
		<path fill="#A6A8AB" d="M1208.532,568.159h-191.197l-59.077-181.846l154.672-112.39l154.679,112.39l-1.004,3.104L1208.532,568.159
			z M1023.87,559.163h178.127l55.044-169.422L1112.93,285.035L968.823,389.74L1023.87,559.163z"/>
	</g>
	<g>
		<path fill="#A6A8AB" d="M1020.605,566.157c-0.521,0-1.032-0.162-1.468-0.479c-0.874-0.639-1.239-1.764-0.912-2.787l92.332-284.18
			l4.753,1.54l-89.952,276.871l235.5-171.117l2.935,4.043l-241.72,175.63C1021.633,565.995,1021.121,566.157,1020.605,566.157z"/>
	</g>
	<path fill="#FFFFFF" d="M1137.055,280.698c0,13.534-10.968,24.503-24.495,24.503c-13.529,0-24.499-10.969-24.499-24.503
		c0-13.53,10.97-24.495,24.499-24.495C1126.087,256.203,1137.055,267.168,1137.055,280.698z"/>
	<path fill="#A6A8AB" d="M1125.281,280.698c0,6.979-5.649,12.64-12.624,12.64c-6.983,0-12.645-5.661-12.645-12.64
		c0-6.971,5.661-12.633,12.645-12.633C1119.632,268.065,1125.281,273.727,1125.281,280.698z"/>
	<path fill="#FFFFFF" d="M988.036,387.707c0,13.526-10.959,24.502-24.49,24.502c-13.526,0-24.495-10.976-24.495-24.502
		c0-13.534,10.969-24.502,24.495-24.502C977.077,363.204,988.036,374.173,988.036,387.707z"/>
	<path fill="#A6A8AB" d="M976.272,387.707c0,6.979-5.653,12.632-12.633,12.632c-6.975,0-12.636-5.653-12.636-12.632
		c0-6.979,5.661-12.632,12.636-12.632C970.618,375.074,976.272,380.728,976.272,387.707z"/>
	<path fill="#FFFFFF" d="M1047.907,563.653c0,15.129-12.256,27.383-27.384,27.383c-15.124,0-27.383-12.254-27.383-27.383
		s12.259-27.383,27.383-27.383C1035.652,536.27,1047.907,548.524,1047.907,563.653z"/>
	<path fill="#2CA9E1" d="M1035.906,563.653c0,8.441-6.84,15.281-15.277,15.281c-8.438,0-15.282-6.84-15.282-15.281
		c0-8.443,6.844-15.283,15.282-15.283C1029.066,548.37,1035.906,555.209,1035.906,563.653z"/>
	<path fill="#FFFFFF" d="M1229.145,563.653c0,13.525-10.965,24.494-24.49,24.494c-13.53,0-24.495-10.969-24.495-24.494
		s10.965-24.494,24.495-24.494C1218.18,539.159,1229.145,550.127,1229.145,563.653z"/>
	<path fill="#A6A8AB" d="M1217.372,563.653c0,6.979-5.651,12.633-12.626,12.633c-6.979,0-12.636-5.654-12.636-12.633
		s5.657-12.633,12.636-12.633C1211.721,551.02,1217.372,556.674,1217.372,563.653z"/>
	<path fill="#FFFFFF" d="M1286.821,387.707c0,13.534-10.962,24.502-24.492,24.502c-13.526,0-24.495-10.969-24.495-24.502
		c0-13.526,10.969-24.495,24.495-24.495C1275.859,363.212,1286.821,374.18,1286.821,387.707z"/>
	<path fill="#A6A8AB" d="M1275.054,387.707c0,6.979-5.65,12.632-12.633,12.632c-6.979,0-12.637-5.653-12.637-12.632
		c0-6.979,5.657-12.632,12.637-12.632C1269.404,375.074,1275.054,380.728,1275.054,387.707z"/>
</g>
</svg>
