<?xml version="1.0" encoding="utf-8"?>
<!-- Generator: Adobe Illustrator 18.1.1, SVG Export Plug-In . SVG Version: 6.00 Build 0)  -->
<svg version="1.1" xmlns="http://www.w3.org/2000/svg" xmlns:xlink="http://www.w3.org/1999/xlink" x="0px" y="0px"
	 viewBox="0 0 120 120" enable-background="new 0 0 120 120" xml:space="preserve">
<g id="Background">
</g>
<g id="Layer_1">
	<circle fill="#FFFFFF" cx="60" cy="60" r="60"/>
	<circle fill="none" cx="60.6" cy="59.6" r="59.3"/>
	<g>
		<path fill="#2CA9E1" d="M41.8,59.1V79h10.4l0-19.9H41.8z M52.3,79v0.9V79z M52.2,80.9H41.8c-1,0-1.8-0.9-1.8-1.9V59.1
			c0-1,0.8-1.9,1.8-1.9h10.4c1,0,1.9,0.8,1.9,1.9V79C54.1,80,53.2,80.9,52.2,80.9"/>
		<path fill="#A6A8AB" d="M38.1,80.9H26.6c-1.2,0-1.9-1.3-1.9-2.2V50.1c0-0.7,0.4-1.5,1.9-1.5h20.8c1.6,0,1.8,0.8,1.8,1.5v5.2h-1.9
			v-4.8H26.6v28.1c0,0.1,0.1,0.2,0.2,0.4h11.3V80.9z"/>
		<path fill="#A6A8AB" d="M90.1,76.2H56v-2h34.1V41H41c-0.1,0-0.1,0.1-0.1,0.2v5.6h-2v-5.7c0-1.1,1.2-1.9,2.2-1.9h49.1
			c1,0,1.9,0.9,1.9,1.9v33.2C92,75.3,91.1,76.2,90.1,76.2"/>
		<path fill="#A6A8AB" d="M93.9,77.1H71.1v0.9H59.7v-0.9H56v2.8h37.9c0.8,0,1.4-0.6,1.4-1.4C95.3,77.8,94.7,77.1,93.9,77.1"/>
	</g>
</g>
</svg>
